<svg xmlns="http://www.w3.org/2000/svg" xmlns:xlink="http://www.w3.org/1999/xlink" width="500" zoomAndPan="magnify" viewBox="0 0 375 374.999991" height="500" preserveAspectRatio="xMidYMid meet" version="1.0"><defs><g/><clipPath id="f5ae58dfa8"><path d="M 109.523438 133 L 257 133 L 257 203 L 109.523438 203 Z M 109.523438 133 " clip-rule="nonzero"/></clipPath></defs><path fill="#0052cc" d="M 238.609375 147.820312 C 227.921875 158.410156 209.3125 163.621094 199.96875 165.679688 C 212.257812 160.023438 225.984375 150.179688 237.335938 133.195312 C 237.335938 133.191406 241.453125 137.863281 238.609375 147.820312 Z M 238.609375 147.820312 " fill-opacity="1" fill-rule="nonzero"/><g clip-path="url(#f5ae58dfa8)"><path fill="#0052cc" d="M 109.523438 186.410156 C 109.523438 186.410156 121.40625 154.476562 147.148438 150.765625 C 172.894531 147.054688 177.347656 157.695312 206.3125 147.300781 C 206.3125 147.300781 211.261719 162.894531 180.320312 166.855469 C 180.320312 166.855469 177.101562 173.042969 186.757812 173.042969 C 196.410156 173.042969 230.570312 168.730469 254.335938 133.1875 C 254.335938 133.1875 265.472656 145.8125 238.492188 173.785156 C 211.511719 201.753906 177.351562 216.117188 109.523438 186.410156 Z M 109.523438 186.410156 " fill-opacity="1" fill-rule="nonzero"/></g><path fill="#e24065" d="M 213.976562 97.128906 C 209.0625 92.21875 201.105469 92.21875 196.195312 97.128906 L 189.578125 103.742188 L 182.960938 97.128906 C 178.050781 92.21875 170.089844 92.21875 165.179688 97.128906 C 162.726562 99.582031 161.5 102.796875 161.5 106.015625 C 161.5 109.234375 162.730469 112.453125 165.179688 114.910156 L 189.578125 139.308594 L 189.582031 139.308594 L 213.980469 114.910156 C 218.886719 109.996094 218.886719 102.035156 213.976562 97.128906 Z M 198.566406 119.703125 L 192.902344 119.703125 L 192.902344 125.367188 L 186.242188 125.367188 L 186.242188 119.703125 L 180.582031 119.703125 L 180.582031 113.042969 L 186.242188 113.042969 L 186.242188 107.382812 L 192.902344 107.382812 L 192.902344 113.046875 L 198.566406 113.046875 Z M 198.566406 119.703125 " fill-opacity="1" fill-rule="nonzero"/><g fill="#0052cc" fill-opacity="1"><g transform="translate(136.523199, 261.889913)"><g><path d="M 22.9375 -39.953125 C 24.914062 -39.953125 26.546875 -39.78125 27.828125 -39.4375 C 29.117188 -39.101562 30.503906 -38.632812 31.984375 -38.03125 C 32.140625 -37.945312 32.53125 -37.78125 33.15625 -37.53125 C 33.78125 -37.289062 34.34375 -37.171875 34.84375 -37.171875 C 36.28125 -37.171875 37.171875 -38.082031 37.515625 -39.90625 L 38.65625 -39.90625 L 38.65625 -26.8125 L 37.515625 -26.8125 C 37.210938 -28.976562 36.441406 -30.863281 35.203125 -32.46875 C 33.972656 -34.082031 32.484375 -35.316406 30.734375 -36.171875 C 28.992188 -37.023438 27.210938 -37.453125 25.390625 -37.453125 C 22.804688 -37.453125 20.554688 -36.679688 18.640625 -35.140625 C 16.722656 -33.609375 15.257812 -31.472656 14.25 -28.734375 C 13.25 -26.003906 12.75 -22.914062 12.75 -19.46875 C 12.75 -13.882812 13.847656 -9.507812 16.046875 -6.34375 C 18.253906 -3.175781 21.289062 -1.59375 25.15625 -1.59375 C 27.625 -1.59375 29.84375 -2.179688 31.8125 -3.359375 C 33.789062 -4.535156 35.804688 -6.316406 37.859375 -8.703125 L 37.859375 -5.578125 C 35.734375 -3.335938 33.519531 -1.710938 31.21875 -0.703125 C 28.925781 0.296875 26.300781 0.796875 23.34375 0.796875 C 19.164062 0.796875 15.507812 -0.0703125 12.375 -1.8125 C 9.25 -3.5625 6.84375 -5.9375 5.15625 -8.9375 C 3.46875 -11.9375 2.625 -15.253906 2.625 -18.890625 C 2.625 -22.648438 3.539062 -26.140625 5.375 -29.359375 C 7.21875 -32.585938 9.691406 -35.160156 12.796875 -37.078125 C 15.910156 -38.992188 19.289062 -39.953125 22.9375 -39.953125 Z M 22.9375 -39.953125 "/></g></g></g><g fill="#0052cc" fill-opacity="1"><g transform="translate(173.539504, 237.599178)"><g><path d="M 4.296875 -8.84375 L 4.328125 -8.84375 C 5.117188 -9.914062 6.066406 -10.453125 7.171875 -10.453125 C 8.128906 -10.453125 8.828125 -10.144531 9.265625 -9.53125 C 9.703125 -8.914062 9.921875 -8.128906 9.921875 -7.171875 L 9.921875 -1.546875 C 9.921875 -1.273438 9.992188 -1.03125 10.140625 -0.8125 C 10.285156 -0.601562 10.484375 -0.460938 10.734375 -0.390625 L 10.734375 0 L 5.984375 0 L 5.984375 -0.390625 C 6.316406 -0.484375 6.550781 -0.617188 6.6875 -0.796875 C 6.832031 -0.984375 6.90625 -1.316406 6.90625 -1.796875 L 6.90625 -7.65625 C 6.90625 -8.5625 6.59375 -9.015625 5.96875 -9.015625 C 5.695312 -9.015625 5.429688 -8.914062 5.171875 -8.71875 C 4.910156 -8.519531 4.617188 -8.195312 4.296875 -7.75 L 4.296875 -1.78125 C 4.296875 -1.351562 4.363281 -1.03125 4.5 -0.8125 C 4.632812 -0.59375 4.863281 -0.453125 5.1875 -0.390625 L 5.1875 0 L 0.375 0 L 0.375 -0.390625 C 0.632812 -0.460938 0.820312 -0.550781 0.9375 -0.65625 C 1.0625 -0.757812 1.148438 -0.925781 1.203125 -1.15625 C 1.253906 -1.382812 1.28125 -1.734375 1.28125 -2.203125 L 1.28125 -13.421875 C 1.28125 -13.859375 1.195312 -14.164062 1.03125 -14.34375 C 0.875 -14.53125 0.65625 -14.65625 0.375 -14.71875 L 0.375 -15.109375 L 4.296875 -15.109375 Z M 4.296875 -8.84375 "/></g></g></g><g fill="#0052cc" fill-opacity="1"><g transform="translate(184.537539, 237.599178)"><g><path d="M 6.8125 -10.453125 C 7.164062 -10.453125 7.453125 -10.316406 7.671875 -10.046875 C 7.898438 -9.773438 8.015625 -9.425781 8.015625 -9 C 8.015625 -8.539062 7.898438 -8.171875 7.671875 -7.890625 C 7.453125 -7.617188 7.15625 -7.484375 6.78125 -7.484375 C 6.601562 -7.484375 6.445312 -7.519531 6.3125 -7.59375 C 6.175781 -7.664062 6.015625 -7.765625 5.828125 -7.890625 C 5.546875 -8.085938 5.34375 -8.1875 5.21875 -8.1875 C 4.976562 -8.1875 4.773438 -7.992188 4.609375 -7.609375 C 4.453125 -7.234375 4.375 -6.800781 4.375 -6.3125 L 4.375 -1.734375 C 4.375 -1.253906 4.46875 -0.910156 4.65625 -0.703125 C 4.851562 -0.492188 5.203125 -0.390625 5.703125 -0.390625 L 5.703125 0 L 0.234375 0 L 0.234375 -0.390625 C 0.984375 -0.390625 1.359375 -0.832031 1.359375 -1.71875 L 1.359375 -8.484375 C 1.359375 -9.359375 0.984375 -9.800781 0.234375 -9.8125 L 0.234375 -10.203125 L 4.375 -10.203125 L 4.375 -8.375 L 4.421875 -8.375 C 5.109375 -9.757812 5.90625 -10.453125 6.8125 -10.453125 Z M 6.8125 -10.453125 "/></g></g></g><g fill="#0052cc" fill-opacity="1"><g transform="translate(193.006029, 237.599178)"><g><path d="M 5.453125 -10.453125 C 6.347656 -10.453125 7.164062 -10.238281 7.90625 -9.8125 C 8.644531 -9.382812 9.238281 -8.765625 9.6875 -7.953125 C 10.132812 -7.140625 10.359375 -6.164062 10.359375 -5.03125 C 10.359375 -3.832031 10.109375 -2.832031 9.609375 -2.03125 C 9.109375 -1.238281 8.488281 -0.648438 7.75 -0.265625 C 7.007812 0.117188 6.273438 0.3125 5.546875 0.3125 C 4.734375 0.3125 3.945312 0.101562 3.1875 -0.3125 C 2.4375 -0.738281 1.820312 -1.359375 1.34375 -2.171875 C 0.875 -2.984375 0.640625 -3.960938 0.640625 -5.109375 C 0.640625 -6.128906 0.84375 -7.039062 1.25 -7.84375 C 1.664062 -8.65625 2.238281 -9.289062 2.96875 -9.75 C 3.695312 -10.21875 4.523438 -10.453125 5.453125 -10.453125 Z M 3.8125 -5.546875 C 3.8125 -4.222656 3.851562 -3.207031 3.9375 -2.5 C 4.019531 -1.789062 4.179688 -1.273438 4.421875 -0.953125 C 4.671875 -0.628906 5.03125 -0.46875 5.5 -0.46875 C 5.925781 -0.46875 6.265625 -0.597656 6.515625 -0.859375 C 6.765625 -1.117188 6.9375 -1.546875 7.03125 -2.140625 C 7.132812 -2.734375 7.1875 -3.546875 7.1875 -4.578125 C 7.1875 -5.898438 7.148438 -6.90625 7.078125 -7.59375 C 7.003906 -8.289062 6.84375 -8.8125 6.59375 -9.15625 C 6.34375 -9.507812 5.960938 -9.6875 5.453125 -9.6875 C 4.804688 -9.6875 4.367188 -9.335938 4.140625 -8.640625 C 3.921875 -7.941406 3.8125 -6.910156 3.8125 -5.546875 Z M 3.8125 -5.546875 "/></g></g></g><g fill="#0052cc" fill-opacity="1"><g transform="translate(204.004063, 237.599178)"><g><path d="M 7.171875 -10.453125 C 8.046875 -10.453125 8.710938 -10.15625 9.171875 -9.5625 C 9.640625 -8.96875 9.875 -8.238281 9.875 -7.375 L 9.875 -2.109375 C 9.875 -1.679688 9.890625 -1.367188 9.921875 -1.171875 C 9.960938 -0.972656 10.03125 -0.820312 10.125 -0.71875 C 10.226562 -0.625 10.394531 -0.515625 10.625 -0.390625 L 10.625 0 L 5.9375 0 L 5.9375 -0.390625 C 6.550781 -0.460938 6.859375 -0.929688 6.859375 -1.796875 L 6.859375 -7.53125 C 6.859375 -8.539062 6.535156 -9.046875 5.890625 -9.046875 C 5.316406 -9.046875 4.757812 -8.625 4.21875 -7.78125 L 4.21875 -1.671875 C 4.21875 -0.941406 4.523438 -0.515625 5.140625 -0.390625 L 5.140625 0 L 0.375 0 L 0.375 -0.390625 C 0.632812 -0.453125 0.835938 -0.582031 0.984375 -0.78125 C 1.128906 -0.988281 1.203125 -1.320312 1.203125 -1.78125 L 1.203125 -8.484375 C 1.203125 -8.785156 1.140625 -9.0625 1.015625 -9.3125 C 0.898438 -9.570312 0.6875 -9.738281 0.375 -9.8125 L 0.375 -10.203125 L 4.21875 -10.203125 L 4.21875 -8.84375 C 4.6875 -9.382812 5.15625 -9.785156 5.625 -10.046875 C 6.101562 -10.316406 6.617188 -10.453125 7.171875 -10.453125 Z M 7.171875 -10.453125 "/></g></g></g><g fill="#0052cc" fill-opacity="1"><g transform="translate(215.002098, 237.599178)"><g><path d="M 3.109375 -15.4375 C 3.578125 -15.4375 3.972656 -15.269531 4.296875 -14.9375 C 4.628906 -14.613281 4.796875 -14.21875 4.796875 -13.75 C 4.796875 -13.28125 4.628906 -12.875 4.296875 -12.53125 C 3.972656 -12.195312 3.578125 -12.03125 3.109375 -12.03125 C 2.628906 -12.03125 2.222656 -12.195312 1.890625 -12.53125 C 1.554688 -12.875 1.390625 -13.28125 1.390625 -13.75 C 1.390625 -14.21875 1.554688 -14.613281 1.890625 -14.9375 C 2.222656 -15.269531 2.628906 -15.4375 3.109375 -15.4375 Z M 4.546875 -1.671875 C 4.546875 -0.835938 4.914062 -0.410156 5.65625 -0.390625 L 5.65625 0 L 0.265625 0 L 0.265625 -0.390625 C 0.722656 -0.390625 1.050781 -0.492188 1.25 -0.703125 C 1.445312 -0.910156 1.546875 -1.269531 1.546875 -1.78125 L 1.546875 -8.453125 C 1.546875 -8.929688 1.445312 -9.273438 1.25 -9.484375 C 1.0625 -9.703125 0.734375 -9.8125 0.265625 -9.8125 L 0.265625 -10.203125 L 4.546875 -10.203125 Z M 4.546875 -1.671875 "/></g></g></g><g fill="#0052cc" fill-opacity="1"><g transform="translate(220.963039, 237.599178)"><g><path d="M 5.546875 -10.453125 C 6.191406 -10.453125 6.785156 -10.332031 7.328125 -10.09375 C 7.867188 -9.863281 8.296875 -9.550781 8.609375 -9.15625 C 8.929688 -8.769531 9.09375 -8.34375 9.09375 -7.875 C 9.09375 -7.488281 8.960938 -7.171875 8.703125 -6.921875 C 8.441406 -6.679688 8.125 -6.5625 7.75 -6.5625 C 7.1875 -6.5625 6.753906 -6.800781 6.453125 -7.28125 C 6.328125 -7.457031 6.242188 -7.632812 6.203125 -7.8125 C 6.160156 -7.988281 6.125 -8.203125 6.09375 -8.453125 C 6.0625 -8.703125 6.023438 -8.894531 5.984375 -9.03125 C 5.953125 -9.164062 5.882812 -9.285156 5.78125 -9.390625 C 5.59375 -9.585938 5.359375 -9.6875 5.078125 -9.6875 C 4.492188 -9.6875 4.066406 -9.375 3.796875 -8.75 C 3.535156 -8.125 3.40625 -7.367188 3.40625 -6.484375 C 3.40625 -5.785156 3.507812 -5.039062 3.71875 -4.25 C 3.9375 -3.46875 4.285156 -2.796875 4.765625 -2.234375 C 5.253906 -1.671875 5.875 -1.390625 6.625 -1.390625 C 7.09375 -1.390625 7.492188 -1.460938 7.828125 -1.609375 C 8.171875 -1.765625 8.566406 -2.085938 9.015625 -2.578125 L 9.375 -2.328125 C 8.90625 -1.484375 8.3125 -0.832031 7.59375 -0.375 C 6.882812 0.0820312 6.09375 0.3125 5.21875 0.3125 C 4.320312 0.3125 3.515625 0.09375 2.796875 -0.34375 C 2.085938 -0.789062 1.53125 -1.40625 1.125 -2.1875 C 0.726562 -2.96875 0.53125 -3.859375 0.53125 -4.859375 C 0.53125 -5.898438 0.75 -6.847656 1.1875 -7.703125 C 1.625 -8.566406 2.222656 -9.238281 2.984375 -9.71875 C 3.753906 -10.207031 4.609375 -10.453125 5.546875 -10.453125 Z M 5.546875 -10.453125 "/></g></g></g><g fill="#0052cc" fill-opacity="1"><g transform="translate(170.152786, 255.0537)"><g><path d="M 5.59375 -10.453125 C 6.851562 -10.453125 7.773438 -10.191406 8.359375 -9.671875 C 8.941406 -9.160156 9.234375 -8.507812 9.234375 -7.71875 L 9.234375 -2.28125 C 9.234375 -1.476562 9.441406 -1.078125 9.859375 -1.078125 C 9.972656 -1.078125 10.070312 -1.109375 10.15625 -1.171875 C 10.238281 -1.242188 10.328125 -1.359375 10.421875 -1.515625 L 10.625 -1.3125 C 10.414062 -0.820312 10.09375 -0.425781 9.65625 -0.125 C 9.21875 0.164062 8.726562 0.3125 8.1875 0.3125 C 7.625 0.3125 7.171875 0.171875 6.828125 -0.109375 C 6.484375 -0.390625 6.28125 -0.800781 6.21875 -1.34375 C 6.132812 -1.28125 6.003906 -1.175781 5.828125 -1.03125 C 5.316406 -0.601562 4.835938 -0.269531 4.390625 -0.03125 C 3.953125 0.195312 3.445312 0.3125 2.875 0.3125 C 2.3125 0.3125 1.832031 0.109375 1.4375 -0.296875 C 1.050781 -0.710938 0.859375 -1.210938 0.859375 -1.796875 C 0.859375 -2.566406 1.191406 -3.25 1.859375 -3.84375 C 2.523438 -4.445312 3.253906 -4.929688 4.046875 -5.296875 L 6.21875 -6.359375 L 6.21875 -8.359375 C 6.21875 -8.722656 6.101562 -9.035156 5.875 -9.296875 C 5.65625 -9.554688 5.300781 -9.6875 4.8125 -9.6875 C 4.394531 -9.6875 4.039062 -9.597656 3.75 -9.421875 C 3.46875 -9.242188 3.328125 -9.03125 3.328125 -8.78125 C 3.328125 -8.6875 3.347656 -8.59375 3.390625 -8.5 C 3.441406 -8.414062 3.507812 -8.332031 3.59375 -8.25 C 3.71875 -8.09375 3.816406 -7.9375 3.890625 -7.78125 C 3.960938 -7.632812 4 -7.46875 4 -7.28125 C 4 -6.925781 3.867188 -6.640625 3.609375 -6.421875 C 3.347656 -6.203125 3.003906 -6.09375 2.578125 -6.09375 C 2.109375 -6.09375 1.722656 -6.21875 1.421875 -6.46875 C 1.128906 -6.71875 0.984375 -7.046875 0.984375 -7.453125 C 0.984375 -7.984375 1.191406 -8.476562 1.609375 -8.9375 C 2.035156 -9.40625 2.597656 -9.773438 3.296875 -10.046875 C 4.003906 -10.316406 4.769531 -10.453125 5.59375 -10.453125 Z M 3.84375 -2.75 C 3.84375 -2.394531 3.941406 -2.109375 4.140625 -1.890625 C 4.335938 -1.671875 4.59375 -1.5625 4.90625 -1.5625 C 5.15625 -1.5625 5.378906 -1.601562 5.578125 -1.6875 C 5.773438 -1.78125 5.988281 -1.921875 6.21875 -2.109375 L 6.21875 -5.59375 C 4.632812 -4.78125 3.84375 -3.832031 3.84375 -2.75 Z M 3.84375 -2.75 "/></g></g></g><g fill="#0052cc" fill-opacity="1"><g transform="translate(181.15082, 255.0537)"><g><path d="M 6.8125 -10.453125 C 7.164062 -10.453125 7.453125 -10.316406 7.671875 -10.046875 C 7.898438 -9.773438 8.015625 -9.425781 8.015625 -9 C 8.015625 -8.539062 7.898438 -8.171875 7.671875 -7.890625 C 7.453125 -7.617188 7.15625 -7.484375 6.78125 -7.484375 C 6.601562 -7.484375 6.445312 -7.519531 6.3125 -7.59375 C 6.175781 -7.664062 6.015625 -7.765625 5.828125 -7.890625 C 5.546875 -8.085938 5.34375 -8.1875 5.21875 -8.1875 C 4.976562 -8.1875 4.773438 -7.992188 4.609375 -7.609375 C 4.453125 -7.234375 4.375 -6.800781 4.375 -6.3125 L 4.375 -1.734375 C 4.375 -1.253906 4.46875 -0.910156 4.65625 -0.703125 C 4.851562 -0.492188 5.203125 -0.390625 5.703125 -0.390625 L 5.703125 0 L 0.234375 0 L 0.234375 -0.390625 C 0.984375 -0.390625 1.359375 -0.832031 1.359375 -1.71875 L 1.359375 -8.484375 C 1.359375 -9.359375 0.984375 -9.800781 0.234375 -9.8125 L 0.234375 -10.203125 L 4.375 -10.203125 L 4.375 -8.375 L 4.421875 -8.375 C 5.109375 -9.757812 5.90625 -10.453125 6.8125 -10.453125 Z M 6.8125 -10.453125 "/></g></g></g><g fill="#0052cc" fill-opacity="1"><g transform="translate(189.61931, 255.0537)"><g><path d="M 5.109375 -10.453125 C 6.003906 -10.453125 6.753906 -10.222656 7.359375 -9.765625 C 7.960938 -9.316406 8.421875 -8.734375 8.734375 -8.015625 C 9.046875 -7.304688 9.207031 -6.570312 9.21875 -5.8125 L 9.21875 -5.4375 L 3.4375 -5.4375 C 3.519531 -4.21875 3.835938 -3.234375 4.390625 -2.484375 C 4.941406 -1.734375 5.628906 -1.359375 6.453125 -1.359375 C 6.972656 -1.359375 7.421875 -1.5 7.796875 -1.78125 C 8.171875 -2.070312 8.515625 -2.488281 8.828125 -3.03125 L 9.21875 -2.796875 C 8.71875 -1.734375 8.125 -0.945312 7.4375 -0.4375 C 6.75 0.0625 5.9375 0.3125 5 0.3125 C 4.0625 0.3125 3.253906 0.0820312 2.578125 -0.375 C 1.910156 -0.84375 1.398438 -1.472656 1.046875 -2.265625 C 0.703125 -3.054688 0.53125 -3.941406 0.53125 -4.921875 C 0.53125 -5.910156 0.734375 -6.828125 1.140625 -7.671875 C 1.554688 -8.515625 2.113281 -9.1875 2.8125 -9.6875 C 3.519531 -10.195312 4.285156 -10.453125 5.109375 -10.453125 Z M 6.53125 -6.703125 C 6.53125 -7.742188 6.414062 -8.515625 6.1875 -9.015625 C 5.96875 -9.515625 5.609375 -9.765625 5.109375 -9.765625 C 4.578125 -9.765625 4.164062 -9.4375 3.875 -8.78125 C 3.582031 -8.132812 3.4375 -7.382812 3.4375 -6.53125 L 3.4375 -6.15625 L 6.53125 -6.15625 Z M 6.53125 -6.703125 "/></g></g></g></svg>